<mxfile host="app.diagrams.net" modified="2024-02-26T07:52:29.645Z" agent="Mozilla/5.0 (Windows NT 10.0; Win64; x64) AppleWebKit/537.36 (KHTML, like Gecko) Chrome/122.0.0.0 Safari/537.36 Edg/122.0.0.0" etag="NFfAfKPPYoG5Dc0AemLS" version="23.1.6" type="github">
  <diagram id="C5RBs43oDa-KdzZeNtuy" name="Page-1">
    <mxGraphModel dx="2377" dy="1308" grid="1" gridSize="10" guides="1" tooltips="1" connect="1" arrows="1" fold="1" page="1" pageScale="1" pageWidth="3013" pageHeight="3083" math="0" shadow="0">
      <root>
        <mxCell id="WIyWlLk6GJQsqaUBKTNV-0" />
        <mxCell id="WIyWlLk6GJQsqaUBKTNV-1" parent="WIyWlLk6GJQsqaUBKTNV-0" />
        <mxCell id="RaPq-8kVNAF0qaADfCIB-3" style="edgeStyle=orthogonalEdgeStyle;rounded=0;orthogonalLoop=1;jettySize=auto;html=1;" edge="1" parent="WIyWlLk6GJQsqaUBKTNV-1" target="RaPq-8kVNAF0qaADfCIB-4">
          <mxGeometry relative="1" as="geometry">
            <mxPoint x="1579.9999999999995" y="110" as="sourcePoint" />
          </mxGeometry>
        </mxCell>
        <mxCell id="RaPq-8kVNAF0qaADfCIB-7" style="edgeStyle=orthogonalEdgeStyle;rounded=0;orthogonalLoop=1;jettySize=auto;html=1;" edge="1" parent="WIyWlLk6GJQsqaUBKTNV-1" source="RaPq-8kVNAF0qaADfCIB-4" target="RaPq-8kVNAF0qaADfCIB-5">
          <mxGeometry relative="1" as="geometry" />
        </mxCell>
        <mxCell id="RaPq-8kVNAF0qaADfCIB-4" value="Menampilkan halaman&lt;br&gt;home page" style="shape=parallelogram;html=1;strokeWidth=2;perimeter=parallelogramPerimeter;whiteSpace=wrap;rounded=1;arcSize=12;size=0.23;" vertex="1" parent="WIyWlLk6GJQsqaUBKTNV-1">
          <mxGeometry x="1485" y="180" width="190" height="60" as="geometry" />
        </mxCell>
        <mxCell id="RaPq-8kVNAF0qaADfCIB-9" style="edgeStyle=orthogonalEdgeStyle;rounded=0;orthogonalLoop=1;jettySize=auto;html=1;" edge="1" parent="WIyWlLk6GJQsqaUBKTNV-1" source="RaPq-8kVNAF0qaADfCIB-5" target="RaPq-8kVNAF0qaADfCIB-8">
          <mxGeometry relative="1" as="geometry" />
        </mxCell>
        <mxCell id="RaPq-8kVNAF0qaADfCIB-5" value="Pengguna mengklik salah satu tombol" style="rounded=1;whiteSpace=wrap;html=1;absoluteArcSize=1;arcSize=14;strokeWidth=2;" vertex="1" parent="WIyWlLk6GJQsqaUBKTNV-1">
          <mxGeometry x="1502.5" y="330" width="155" height="70" as="geometry" />
        </mxCell>
        <mxCell id="RaPq-8kVNAF0qaADfCIB-13" style="edgeStyle=orthogonalEdgeStyle;rounded=0;orthogonalLoop=1;jettySize=auto;html=1;entryX=0;entryY=0.5;entryDx=0;entryDy=0;" edge="1" parent="WIyWlLk6GJQsqaUBKTNV-1" source="RaPq-8kVNAF0qaADfCIB-8" target="RaPq-8kVNAF0qaADfCIB-12">
          <mxGeometry relative="1" as="geometry" />
        </mxCell>
        <mxCell id="RaPq-8kVNAF0qaADfCIB-19" style="edgeStyle=orthogonalEdgeStyle;rounded=0;orthogonalLoop=1;jettySize=auto;html=1;" edge="1" parent="WIyWlLk6GJQsqaUBKTNV-1" source="RaPq-8kVNAF0qaADfCIB-8" target="RaPq-8kVNAF0qaADfCIB-14">
          <mxGeometry relative="1" as="geometry" />
        </mxCell>
        <mxCell id="RaPq-8kVNAF0qaADfCIB-8" value="apakah klik&lt;br&gt;lihat kalkulator?" style="strokeWidth=2;html=1;shape=mxgraph.flowchart.decision;whiteSpace=wrap;" vertex="1" parent="WIyWlLk6GJQsqaUBKTNV-1">
          <mxGeometry x="1510" y="480" width="140" height="100" as="geometry" />
        </mxCell>
        <mxCell id="RaPq-8kVNAF0qaADfCIB-10" value="YA" style="text;html=1;align=center;verticalAlign=middle;resizable=0;points=[];autosize=1;strokeColor=none;fillColor=none;" vertex="1" parent="WIyWlLk6GJQsqaUBKTNV-1">
          <mxGeometry x="1657.5" y="500" width="40" height="30" as="geometry" />
        </mxCell>
        <mxCell id="RaPq-8kVNAF0qaADfCIB-11" value="TIDAK" style="text;html=1;align=center;verticalAlign=middle;resizable=0;points=[];autosize=1;strokeColor=none;fillColor=none;" vertex="1" parent="WIyWlLk6GJQsqaUBKTNV-1">
          <mxGeometry x="1510" y="575" width="60" height="30" as="geometry" />
        </mxCell>
        <mxCell id="RaPq-8kVNAF0qaADfCIB-12" value="akan terscroll kebawah&amp;nbsp;&lt;br&gt;dan pengguna dapat melihat kalkulator" style="rounded=1;whiteSpace=wrap;html=1;absoluteArcSize=1;arcSize=14;strokeWidth=2;" vertex="1" parent="WIyWlLk6GJQsqaUBKTNV-1">
          <mxGeometry x="1780" y="480" width="170" height="100" as="geometry" />
        </mxCell>
        <mxCell id="RaPq-8kVNAF0qaADfCIB-16" style="edgeStyle=orthogonalEdgeStyle;rounded=0;orthogonalLoop=1;jettySize=auto;html=1;" edge="1" parent="WIyWlLk6GJQsqaUBKTNV-1" source="RaPq-8kVNAF0qaADfCIB-14" target="RaPq-8kVNAF0qaADfCIB-15">
          <mxGeometry relative="1" as="geometry" />
        </mxCell>
        <mxCell id="RaPq-8kVNAF0qaADfCIB-24" style="edgeStyle=orthogonalEdgeStyle;rounded=0;orthogonalLoop=1;jettySize=auto;html=1;" edge="1" parent="WIyWlLk6GJQsqaUBKTNV-1" source="RaPq-8kVNAF0qaADfCIB-14" target="RaPq-8kVNAF0qaADfCIB-20">
          <mxGeometry relative="1" as="geometry" />
        </mxCell>
        <mxCell id="RaPq-8kVNAF0qaADfCIB-14" value="apakah klik&lt;br&gt;About Projek?" style="strokeWidth=2;html=1;shape=mxgraph.flowchart.decision;whiteSpace=wrap;" vertex="1" parent="WIyWlLk6GJQsqaUBKTNV-1">
          <mxGeometry x="1505" y="625" width="150" height="100" as="geometry" />
        </mxCell>
        <mxCell id="RaPq-8kVNAF0qaADfCIB-15" value="Pengguna akan pergi ke halaman about projek" style="rounded=1;whiteSpace=wrap;html=1;absoluteArcSize=1;arcSize=14;strokeWidth=2;" vertex="1" parent="WIyWlLk6GJQsqaUBKTNV-1">
          <mxGeometry x="1740" y="625" width="170" height="100" as="geometry" />
        </mxCell>
        <mxCell id="RaPq-8kVNAF0qaADfCIB-17" value="YA" style="text;html=1;align=center;verticalAlign=middle;resizable=0;points=[];autosize=1;strokeColor=none;fillColor=none;" vertex="1" parent="WIyWlLk6GJQsqaUBKTNV-1">
          <mxGeometry x="1660" y="640" width="40" height="30" as="geometry" />
        </mxCell>
        <mxCell id="RaPq-8kVNAF0qaADfCIB-18" value="TIDAK" style="text;html=1;align=center;verticalAlign=middle;resizable=0;points=[];autosize=1;strokeColor=none;fillColor=none;" vertex="1" parent="WIyWlLk6GJQsqaUBKTNV-1">
          <mxGeometry x="1520" y="750" width="60" height="30" as="geometry" />
        </mxCell>
        <mxCell id="RaPq-8kVNAF0qaADfCIB-31" style="edgeStyle=orthogonalEdgeStyle;rounded=0;orthogonalLoop=1;jettySize=auto;html=1;" edge="1" parent="WIyWlLk6GJQsqaUBKTNV-1" source="RaPq-8kVNAF0qaADfCIB-20" target="RaPq-8kVNAF0qaADfCIB-25">
          <mxGeometry relative="1" as="geometry" />
        </mxCell>
        <mxCell id="RaPq-8kVNAF0qaADfCIB-20" value="apakah klik&lt;br&gt;logo message?" style="strokeWidth=2;html=1;shape=mxgraph.flowchart.decision;whiteSpace=wrap;" vertex="1" parent="WIyWlLk6GJQsqaUBKTNV-1">
          <mxGeometry x="1505" y="850" width="150" height="100" as="geometry" />
        </mxCell>
        <mxCell id="RaPq-8kVNAF0qaADfCIB-33" style="edgeStyle=orthogonalEdgeStyle;rounded=0;orthogonalLoop=1;jettySize=auto;html=1;" edge="1" parent="WIyWlLk6GJQsqaUBKTNV-1" source="RaPq-8kVNAF0qaADfCIB-21" target="RaPq-8kVNAF0qaADfCIB-32">
          <mxGeometry relative="1" as="geometry" />
        </mxCell>
        <mxCell id="RaPq-8kVNAF0qaADfCIB-44" style="edgeStyle=orthogonalEdgeStyle;rounded=0;orthogonalLoop=1;jettySize=auto;html=1;entryX=0;entryY=0.5;entryDx=0;entryDy=0;exitX=0.5;exitY=1;exitDx=0;exitDy=0;exitPerimeter=0;" edge="1" parent="WIyWlLk6GJQsqaUBKTNV-1" source="RaPq-8kVNAF0qaADfCIB-21" target="RaPq-8kVNAF0qaADfCIB-5">
          <mxGeometry relative="1" as="geometry">
            <mxPoint x="1810" y="870" as="sourcePoint" />
            <Array as="points">
              <mxPoint x="1875" y="990" />
              <mxPoint x="1482" y="990" />
              <mxPoint x="1482" y="365" />
            </Array>
          </mxGeometry>
        </mxCell>
        <mxCell id="RaPq-8kVNAF0qaADfCIB-21" value="apakah klik&lt;br&gt;berikan feedback?" style="strokeWidth=2;html=1;shape=mxgraph.flowchart.decision;whiteSpace=wrap;" vertex="1" parent="WIyWlLk6GJQsqaUBKTNV-1">
          <mxGeometry x="1800" y="850" width="150" height="100" as="geometry" />
        </mxCell>
        <mxCell id="RaPq-8kVNAF0qaADfCIB-23" style="edgeStyle=orthogonalEdgeStyle;rounded=0;orthogonalLoop=1;jettySize=auto;html=1;entryX=0;entryY=0.5;entryDx=0;entryDy=0;entryPerimeter=0;" edge="1" parent="WIyWlLk6GJQsqaUBKTNV-1" source="RaPq-8kVNAF0qaADfCIB-20" target="RaPq-8kVNAF0qaADfCIB-21">
          <mxGeometry relative="1" as="geometry" />
        </mxCell>
        <mxCell id="RaPq-8kVNAF0qaADfCIB-27" style="edgeStyle=orthogonalEdgeStyle;rounded=0;orthogonalLoop=1;jettySize=auto;html=1;" edge="1" parent="WIyWlLk6GJQsqaUBKTNV-1" source="RaPq-8kVNAF0qaADfCIB-25" target="RaPq-8kVNAF0qaADfCIB-26">
          <mxGeometry relative="1" as="geometry" />
        </mxCell>
        <mxCell id="RaPq-8kVNAF0qaADfCIB-52" style="edgeStyle=orthogonalEdgeStyle;rounded=0;orthogonalLoop=1;jettySize=auto;html=1;entryX=0.5;entryY=0;entryDx=0;entryDy=0;" edge="1" parent="WIyWlLk6GJQsqaUBKTNV-1" source="RaPq-8kVNAF0qaADfCIB-25" target="RaPq-8kVNAF0qaADfCIB-51">
          <mxGeometry relative="1" as="geometry" />
        </mxCell>
        <mxCell id="RaPq-8kVNAF0qaADfCIB-25" value="apakah klik&lt;br&gt;gambar orang?" style="strokeWidth=2;html=1;shape=mxgraph.flowchart.decision;whiteSpace=wrap;" vertex="1" parent="WIyWlLk6GJQsqaUBKTNV-1">
          <mxGeometry x="1505" y="1060" width="150" height="100" as="geometry" />
        </mxCell>
        <mxCell id="RaPq-8kVNAF0qaADfCIB-41" style="edgeStyle=orthogonalEdgeStyle;rounded=0;orthogonalLoop=1;jettySize=auto;html=1;entryX=0;entryY=0.5;entryDx=0;entryDy=0;" edge="1" parent="WIyWlLk6GJQsqaUBKTNV-1" source="RaPq-8kVNAF0qaADfCIB-26" target="RaPq-8kVNAF0qaADfCIB-40">
          <mxGeometry relative="1" as="geometry" />
        </mxCell>
        <mxCell id="RaPq-8kVNAF0qaADfCIB-48" style="edgeStyle=orthogonalEdgeStyle;rounded=0;orthogonalLoop=1;jettySize=auto;html=1;entryX=0;entryY=0.5;entryDx=0;entryDy=0;" edge="1" parent="WIyWlLk6GJQsqaUBKTNV-1" source="RaPq-8kVNAF0qaADfCIB-26" target="RaPq-8kVNAF0qaADfCIB-5">
          <mxGeometry relative="1" as="geometry">
            <Array as="points">
              <mxPoint x="1815" y="1210" />
              <mxPoint x="1482" y="1210" />
              <mxPoint x="1482" y="365" />
            </Array>
          </mxGeometry>
        </mxCell>
        <mxCell id="RaPq-8kVNAF0qaADfCIB-26" value="apakah klik&lt;br&gt;my profile?" style="strokeWidth=2;html=1;shape=mxgraph.flowchart.decision;whiteSpace=wrap;" vertex="1" parent="WIyWlLk6GJQsqaUBKTNV-1">
          <mxGeometry x="1740" y="1060" width="150" height="100" as="geometry" />
        </mxCell>
        <mxCell id="RaPq-8kVNAF0qaADfCIB-28" value="YA" style="text;html=1;align=center;verticalAlign=middle;resizable=0;points=[];autosize=1;strokeColor=none;fillColor=none;" vertex="1" parent="WIyWlLk6GJQsqaUBKTNV-1">
          <mxGeometry x="1700" y="870" width="40" height="30" as="geometry" />
        </mxCell>
        <mxCell id="RaPq-8kVNAF0qaADfCIB-29" value="YA" style="text;html=1;align=center;verticalAlign=middle;resizable=0;points=[];autosize=1;strokeColor=none;fillColor=none;" vertex="1" parent="WIyWlLk6GJQsqaUBKTNV-1">
          <mxGeometry x="1670" y="1080" width="40" height="30" as="geometry" />
        </mxCell>
        <mxCell id="RaPq-8kVNAF0qaADfCIB-30" value="TIDAK" style="text;html=1;align=center;verticalAlign=middle;resizable=0;points=[];autosize=1;strokeColor=none;fillColor=none;" vertex="1" parent="WIyWlLk6GJQsqaUBKTNV-1">
          <mxGeometry x="1520" y="940" width="60" height="30" as="geometry" />
        </mxCell>
        <mxCell id="RaPq-8kVNAF0qaADfCIB-32" value="Pengguna akan melihat sebuah alert untuk memberikan feedback" style="rounded=1;whiteSpace=wrap;html=1;absoluteArcSize=1;arcSize=14;strokeWidth=2;" vertex="1" parent="WIyWlLk6GJQsqaUBKTNV-1">
          <mxGeometry x="2050" y="850" width="170" height="100" as="geometry" />
        </mxCell>
        <mxCell id="RaPq-8kVNAF0qaADfCIB-34" value="YA" style="text;html=1;align=center;verticalAlign=middle;resizable=0;points=[];autosize=1;strokeColor=none;fillColor=none;" vertex="1" parent="WIyWlLk6GJQsqaUBKTNV-1">
          <mxGeometry x="1980" y="870" width="40" height="30" as="geometry" />
        </mxCell>
        <mxCell id="RaPq-8kVNAF0qaADfCIB-40" value="Pengguna akan melihat halaman my profile" style="rounded=1;whiteSpace=wrap;html=1;absoluteArcSize=1;arcSize=14;strokeWidth=2;" vertex="1" parent="WIyWlLk6GJQsqaUBKTNV-1">
          <mxGeometry x="1970" y="1060" width="170" height="100" as="geometry" />
        </mxCell>
        <mxCell id="RaPq-8kVNAF0qaADfCIB-42" value="Start" style="strokeWidth=2;html=1;shape=mxgraph.flowchart.terminator;whiteSpace=wrap;" vertex="1" parent="WIyWlLk6GJQsqaUBKTNV-1">
          <mxGeometry x="1520" y="50" width="120" height="60" as="geometry" />
        </mxCell>
        <mxCell id="RaPq-8kVNAF0qaADfCIB-46" value="TIDAK" style="text;html=1;align=center;verticalAlign=middle;resizable=0;points=[];autosize=1;strokeColor=none;fillColor=none;" vertex="1" parent="WIyWlLk6GJQsqaUBKTNV-1">
          <mxGeometry x="1675" y="960" width="60" height="30" as="geometry" />
        </mxCell>
        <mxCell id="RaPq-8kVNAF0qaADfCIB-49" value="Tidak" style="text;html=1;align=center;verticalAlign=middle;resizable=0;points=[];autosize=1;strokeColor=none;fillColor=none;" vertex="1" parent="WIyWlLk6GJQsqaUBKTNV-1">
          <mxGeometry x="1665" y="1180" width="50" height="30" as="geometry" />
        </mxCell>
        <mxCell id="RaPq-8kVNAF0qaADfCIB-50" value="YA" style="text;html=1;align=center;verticalAlign=middle;resizable=0;points=[];autosize=1;strokeColor=none;fillColor=none;" vertex="1" parent="WIyWlLk6GJQsqaUBKTNV-1">
          <mxGeometry x="1890" y="1080" width="40" height="30" as="geometry" />
        </mxCell>
        <mxCell id="RaPq-8kVNAF0qaADfCIB-55" style="edgeStyle=orthogonalEdgeStyle;rounded=0;orthogonalLoop=1;jettySize=auto;html=1;" edge="1" parent="WIyWlLk6GJQsqaUBKTNV-1" source="RaPq-8kVNAF0qaADfCIB-51" target="RaPq-8kVNAF0qaADfCIB-54">
          <mxGeometry relative="1" as="geometry" />
        </mxCell>
        <mxCell id="RaPq-8kVNAF0qaADfCIB-51" value="pengguna akan scroll ke bawah dan melihat tentukan warna, kalkulator dan petunjuk warna" style="rounded=1;whiteSpace=wrap;html=1;absoluteArcSize=1;arcSize=14;strokeWidth=2;" vertex="1" parent="WIyWlLk6GJQsqaUBKTNV-1">
          <mxGeometry x="1495" y="1290" width="170" height="100" as="geometry" />
        </mxCell>
        <mxCell id="RaPq-8kVNAF0qaADfCIB-53" value="Tidak" style="text;html=1;align=center;verticalAlign=middle;resizable=0;points=[];autosize=1;strokeColor=none;fillColor=none;" vertex="1" parent="WIyWlLk6GJQsqaUBKTNV-1">
          <mxGeometry x="1530" y="1170" width="50" height="30" as="geometry" />
        </mxCell>
        <mxCell id="RaPq-8kVNAF0qaADfCIB-57" style="edgeStyle=orthogonalEdgeStyle;rounded=0;orthogonalLoop=1;jettySize=auto;html=1;" edge="1" parent="WIyWlLk6GJQsqaUBKTNV-1" source="RaPq-8kVNAF0qaADfCIB-54" target="RaPq-8kVNAF0qaADfCIB-56">
          <mxGeometry relative="1" as="geometry" />
        </mxCell>
        <mxCell id="RaPq-8kVNAF0qaADfCIB-62" style="edgeStyle=orthogonalEdgeStyle;rounded=0;orthogonalLoop=1;jettySize=auto;html=1;exitX=0.5;exitY=1;exitDx=0;exitDy=0;exitPerimeter=0;" edge="1" parent="WIyWlLk6GJQsqaUBKTNV-1" source="RaPq-8kVNAF0qaADfCIB-54" target="RaPq-8kVNAF0qaADfCIB-61">
          <mxGeometry relative="1" as="geometry" />
        </mxCell>
        <mxCell id="RaPq-8kVNAF0qaADfCIB-54" value="apakah pengguna mengganti&lt;br&gt;&amp;nbsp;warna sesuai dengan warna&lt;br&gt;&amp;nbsp;favorit nya?" style="strokeWidth=2;html=1;shape=mxgraph.flowchart.decision;whiteSpace=wrap;" vertex="1" parent="WIyWlLk6GJQsqaUBKTNV-1">
          <mxGeometry x="1735" y="1275" width="240" height="130" as="geometry" />
        </mxCell>
        <mxCell id="RaPq-8kVNAF0qaADfCIB-56" value="maka akan mengganti warna pada kalkulator nya" style="rounded=1;whiteSpace=wrap;html=1;absoluteArcSize=1;arcSize=14;strokeWidth=2;" vertex="1" parent="WIyWlLk6GJQsqaUBKTNV-1">
          <mxGeometry x="2030" y="1290" width="170" height="100" as="geometry" />
        </mxCell>
        <mxCell id="RaPq-8kVNAF0qaADfCIB-58" value="YA" style="text;html=1;align=center;verticalAlign=middle;resizable=0;points=[];autosize=1;strokeColor=none;fillColor=none;" vertex="1" parent="WIyWlLk6GJQsqaUBKTNV-1">
          <mxGeometry x="1975" y="1310" width="40" height="30" as="geometry" />
        </mxCell>
        <mxCell id="RaPq-8kVNAF0qaADfCIB-59" value="TIDAK" style="text;html=1;align=center;verticalAlign=middle;resizable=0;points=[];autosize=1;strokeColor=none;fillColor=none;" vertex="1" parent="WIyWlLk6GJQsqaUBKTNV-1">
          <mxGeometry x="1785" y="1420" width="60" height="30" as="geometry" />
        </mxCell>
        <mxCell id="RaPq-8kVNAF0qaADfCIB-64" style="edgeStyle=orthogonalEdgeStyle;rounded=0;orthogonalLoop=1;jettySize=auto;html=1;exitX=0.5;exitY=1;exitDx=0;exitDy=0;exitPerimeter=0;" edge="1" parent="WIyWlLk6GJQsqaUBKTNV-1" source="RaPq-8kVNAF0qaADfCIB-61" target="RaPq-8kVNAF0qaADfCIB-63">
          <mxGeometry relative="1" as="geometry" />
        </mxCell>
        <mxCell id="RaPq-8kVNAF0qaADfCIB-67" style="edgeStyle=orthogonalEdgeStyle;rounded=0;orthogonalLoop=1;jettySize=auto;html=1;entryX=0;entryY=0.5;entryDx=0;entryDy=0;" edge="1" parent="WIyWlLk6GJQsqaUBKTNV-1" source="RaPq-8kVNAF0qaADfCIB-61" target="RaPq-8kVNAF0qaADfCIB-66">
          <mxGeometry relative="1" as="geometry" />
        </mxCell>
        <mxCell id="RaPq-8kVNAF0qaADfCIB-61" value="apakah pengguna mencoba&lt;br&gt;&amp;nbsp;kalkulator nya?" style="strokeWidth=2;html=1;shape=mxgraph.flowchart.decision;whiteSpace=wrap;" vertex="1" parent="WIyWlLk6GJQsqaUBKTNV-1">
          <mxGeometry x="1735" y="1470" width="240" height="130" as="geometry" />
        </mxCell>
        <mxCell id="RaPq-8kVNAF0qaADfCIB-69" style="edgeStyle=orthogonalEdgeStyle;rounded=0;orthogonalLoop=1;jettySize=auto;html=1;" edge="1" parent="WIyWlLk6GJQsqaUBKTNV-1" source="RaPq-8kVNAF0qaADfCIB-63" target="RaPq-8kVNAF0qaADfCIB-68">
          <mxGeometry relative="1" as="geometry" />
        </mxCell>
        <mxCell id="RaPq-8kVNAF0qaADfCIB-71" style="edgeStyle=orthogonalEdgeStyle;rounded=0;orthogonalLoop=1;jettySize=auto;html=1;entryX=0;entryY=0.5;entryDx=0;entryDy=0;" edge="1" parent="WIyWlLk6GJQsqaUBKTNV-1" source="RaPq-8kVNAF0qaADfCIB-63" target="RaPq-8kVNAF0qaADfCIB-70">
          <mxGeometry relative="1" as="geometry" />
        </mxCell>
        <mxCell id="RaPq-8kVNAF0qaADfCIB-63" value="apakah pengguna mencoba&lt;br&gt;&amp;nbsp;kalkulator nya?" style="strokeWidth=2;html=1;shape=mxgraph.flowchart.decision;whiteSpace=wrap;" vertex="1" parent="WIyWlLk6GJQsqaUBKTNV-1">
          <mxGeometry x="1735" y="1640" width="240" height="130" as="geometry" />
        </mxCell>
        <mxCell id="RaPq-8kVNAF0qaADfCIB-65" value="Tidak" style="text;html=1;align=center;verticalAlign=middle;resizable=0;points=[];autosize=1;strokeColor=none;fillColor=none;" vertex="1" parent="WIyWlLk6GJQsqaUBKTNV-1">
          <mxGeometry x="1800" y="1600" width="50" height="30" as="geometry" />
        </mxCell>
        <mxCell id="RaPq-8kVNAF0qaADfCIB-66" value="maka akan mengganti warna pada kalkulator nya" style="rounded=1;whiteSpace=wrap;html=1;absoluteArcSize=1;arcSize=14;strokeWidth=2;" vertex="1" parent="WIyWlLk6GJQsqaUBKTNV-1">
          <mxGeometry x="2030" y="1485" width="170" height="100" as="geometry" />
        </mxCell>
        <mxCell id="RaPq-8kVNAF0qaADfCIB-75" style="edgeStyle=orthogonalEdgeStyle;rounded=0;orthogonalLoop=1;jettySize=auto;html=1;" edge="1" parent="WIyWlLk6GJQsqaUBKTNV-1" source="RaPq-8kVNAF0qaADfCIB-68" target="RaPq-8kVNAF0qaADfCIB-74">
          <mxGeometry relative="1" as="geometry" />
        </mxCell>
        <mxCell id="RaPq-8kVNAF0qaADfCIB-68" value="apakah pengguna membaca&amp;nbsp;&lt;br&gt;&amp;nbsp;petunjuk mengubah warna nya?" style="strokeWidth=2;html=1;shape=mxgraph.flowchart.decision;whiteSpace=wrap;" vertex="1" parent="WIyWlLk6GJQsqaUBKTNV-1">
          <mxGeometry x="1735" y="1820" width="240" height="130" as="geometry" />
        </mxCell>
        <mxCell id="RaPq-8kVNAF0qaADfCIB-70" value="pengguna dapat menggunakan kalkulator nya" style="rounded=1;whiteSpace=wrap;html=1;absoluteArcSize=1;arcSize=14;strokeWidth=2;" vertex="1" parent="WIyWlLk6GJQsqaUBKTNV-1">
          <mxGeometry x="2060" y="1655" width="170" height="100" as="geometry" />
        </mxCell>
        <mxCell id="RaPq-8kVNAF0qaADfCIB-72" value="YA" style="text;html=1;align=center;verticalAlign=middle;resizable=0;points=[];autosize=1;strokeColor=none;fillColor=none;" vertex="1" parent="WIyWlLk6GJQsqaUBKTNV-1">
          <mxGeometry x="1980" y="1510" width="40" height="30" as="geometry" />
        </mxCell>
        <mxCell id="RaPq-8kVNAF0qaADfCIB-73" value="YA" style="text;html=1;align=center;verticalAlign=middle;resizable=0;points=[];autosize=1;strokeColor=none;fillColor=none;" vertex="1" parent="WIyWlLk6GJQsqaUBKTNV-1">
          <mxGeometry x="1990" y="1680" width="40" height="30" as="geometry" />
        </mxCell>
        <mxCell id="RaPq-8kVNAF0qaADfCIB-74" value="pengguna dapat mengetahui cara mengganti warna nya" style="rounded=1;whiteSpace=wrap;html=1;absoluteArcSize=1;arcSize=14;strokeWidth=2;" vertex="1" parent="WIyWlLk6GJQsqaUBKTNV-1">
          <mxGeometry x="2060" y="1835" width="170" height="100" as="geometry" />
        </mxCell>
        <mxCell id="RaPq-8kVNAF0qaADfCIB-76" value="YA" style="text;html=1;align=center;verticalAlign=middle;resizable=0;points=[];autosize=1;strokeColor=none;fillColor=none;" vertex="1" parent="WIyWlLk6GJQsqaUBKTNV-1">
          <mxGeometry x="2000" y="1850" width="40" height="30" as="geometry" />
        </mxCell>
        <mxCell id="RaPq-8kVNAF0qaADfCIB-77" value="Tidak" style="text;html=1;align=center;verticalAlign=middle;resizable=0;points=[];autosize=1;strokeColor=none;fillColor=none;" vertex="1" parent="WIyWlLk6GJQsqaUBKTNV-1">
          <mxGeometry x="1790" y="1780" width="50" height="30" as="geometry" />
        </mxCell>
        <mxCell id="RaPq-8kVNAF0qaADfCIB-79" value="Selesai" style="strokeWidth=2;html=1;shape=mxgraph.flowchart.terminator;whiteSpace=wrap;" vertex="1" parent="WIyWlLk6GJQsqaUBKTNV-1">
          <mxGeometry x="1530" y="2000" width="120" height="60" as="geometry" />
        </mxCell>
        <mxCell id="RaPq-8kVNAF0qaADfCIB-80" style="edgeStyle=orthogonalEdgeStyle;rounded=0;orthogonalLoop=1;jettySize=auto;html=1;entryX=1;entryY=0.5;entryDx=0;entryDy=0;entryPerimeter=0;" edge="1" parent="WIyWlLk6GJQsqaUBKTNV-1" source="RaPq-8kVNAF0qaADfCIB-68" target="RaPq-8kVNAF0qaADfCIB-79">
          <mxGeometry relative="1" as="geometry">
            <Array as="points">
              <mxPoint x="1855" y="2030" />
            </Array>
          </mxGeometry>
        </mxCell>
      </root>
    </mxGraphModel>
  </diagram>
</mxfile>
